<svg width="33" height="32" viewBox="0 0 33 32" fill="none" xmlns="http://www.w3.org/2000/svg">
<path d="M16.136 32C24.9725 32 32.136 24.8366 32.136 16C32.136 7.16344 24.9725 0 16.136 0C7.29943 0 0.135986 7.16344 0.135986 16C0.135986 24.8366 7.29943 32 16.136 32Z" fill="white"/>
<path d="M14.386 15.75C14.386 15.75 15.886 15.1925 15.886 13.25C15.886 11.3075 14.601 10.5 12.886 10.5H7.13599V21.5H12.886C12.886 21.5 16.136 21.5 16.136 18.25C16.136 18.25 16.136 15.75 14.386 15.75ZM9.63599 12.5H12.886C12.886 12.5 13.636 12.5 13.636 13.5C13.636 14.63 13.136 14.75 12.636 14.75H9.63599V12.5ZM12.636 19.5H9.63599V16.75L12.7835 16.7325C12.7835 16.7325 13.886 16.75 13.886 18.25C13.886 19.5 13.0885 19.4875 12.636 19.5ZM21.3285 13.22C17.156 13.22 17.1585 17.39 17.1585 17.39C17.1585 17.39 16.9285 21.5 21.386 21.5C21.386 21.5 25.136 21.8475 25.136 18.75H23.136C23.136 18.75 23.196 19.82 21.386 19.82C21.386 19.82 19.386 20.0175 19.386 18H25.136C25.136 18 25.721 13.22 21.3285 13.22ZM23.136 16.5H19.386C19.386 16.5 19.696 14.81 21.371 14.81C23.046 14.81 23.136 16.5 23.136 16.5ZM18.886 11H23.636V12.5H18.886V11Z" fill="black"/>
</svg>
