<svg width="65" height="64" viewBox="0 0 65 64" fill="none" xmlns="http://www.w3.org/2000/svg">
<g clip-path="url(#clip0_252_1191)">
<path d="M50.7539 44.847C48.249 47.4058 44.7453 48.8527 40.95 48.8578C37.1522 48.8654 33.6459 47.4286 31.141 44.8775C29.9165 43.6337 29.019 42.2071 28.4613 40.6815C27.9162 39.1838 27.7083 37.582 27.8477 35.9955C27.9821 34.4471 28.4384 32.9418 29.1914 31.5812C29.9241 30.251 30.9306 29.0503 32.1729 28.035C34.6068 26.0474 37.7049 24.9736 40.95 24.9685C44.1951 24.9634 47.2907 26.0321 49.7271 28.0096C50.9668 29.0224 51.9733 30.218 52.7035 31.5456C53.4565 32.9062 53.9153 34.409 54.0497 35.9574C54.1892 37.5465 53.9787 39.1457 53.4336 40.6459C52.8759 42.169 51.9759 43.5981 50.7539 44.847Z" fill="white"/>
<path d="M32.8524 36.1578C32.9665 34.089 33.9806 32.2638 35.5068 30.9718C37.0052 29.7 39.0232 28.9258 41.2213 28.9258C43.4219 28.9283 45.4375 29.7025 46.9358 30.9718C48.462 32.2664 49.4761 34.089 49.5928 36.1578C49.7094 38.285 48.855 40.2624 47.3567 41.7271C45.8304 43.2172 43.6552 44.1539 41.2213 44.1539C38.7875 44.1539 36.6097 43.2172 35.0834 41.7271C33.5876 40.2624 32.7358 38.285 32.8524 36.1578Z" fill="#005385"/>
<path d="M19.5192 40.3462C19.5344 41.1534 19.793 42.7272 20.1784 43.9584C20.9922 46.5603 22.3714 48.9693 24.2931 51.0914C26.2656 53.2719 28.6893 55.0234 31.4933 56.2647C34.4418 57.572 37.6337 58.2396 40.9473 58.232C44.2609 58.2269 47.4528 57.5492 50.3988 56.2317C53.2003 54.9752 55.624 53.2186 57.5939 51.033C59.5131 48.9007 60.8897 46.4892 61.7035 43.8873C62.1092 42.5902 62.3703 41.2524 62.4768 39.8994C62.5782 38.5794 62.5351 37.2493 62.35 35.9369C61.985 33.3629 61.0951 30.9489 59.726 28.7481C58.4711 26.7275 56.8586 24.9556 54.9394 23.463L54.942 23.4605L35.5776 8.57508C35.5624 8.56239 35.5447 8.54716 35.5294 8.53447C34.2542 7.55971 32.1195 7.56225 30.7226 8.54208C29.3079 9.53208 29.1482 11.1694 30.4031 12.2025L30.3981 12.2051L38.4754 18.7847L13.8504 18.8101H13.8174C11.7841 18.8126 9.8269 20.1504 9.439 21.8384C9.0435 23.5595 10.4252 24.9861 12.5422 24.9962L12.5396 25.0039L25.0208 24.9785L2.74843 42.0952C2.72055 42.118 2.69012 42.1383 2.66477 42.1586C0.565569 43.768 -0.113882 46.4486 1.20699 48.1443C2.55068 49.8679 5.4054 49.8704 7.52995 48.1519L19.684 38.1936C19.684 38.1936 19.5065 39.539 19.5192 40.3462ZM50.7537 44.8468C48.2489 47.4056 44.7451 48.8525 40.9498 48.8576C37.152 48.8652 33.6457 47.4284 31.1409 44.8773C29.9164 43.6335 29.0189 42.2069 28.4611 40.6813C27.916 39.1836 27.7081 37.5818 27.8476 35.9953C27.9819 34.4469 28.4383 32.9416 29.1913 31.581C29.924 30.2508 30.9305 29.0501 32.1727 28.0348C34.6066 26.0472 37.7047 24.9734 40.9498 24.9683C44.195 24.9632 47.2905 26.0319 49.7269 28.0094C50.9667 29.0222 51.9732 30.2178 52.7033 31.5454C53.4563 32.906 53.9152 34.4088 54.0496 35.9572C54.189 37.5463 53.9786 39.1455 53.4335 40.6457C52.8757 42.1688 51.9757 43.5979 50.7537 44.8468Z" fill="#FF7021"/>
</g>
<defs>
<clipPath id="clip0_252_1191">
<rect width="64" height="64" fill="white" transform="translate(0.0302734)"/>
</clipPath>
</defs>
</svg>
