<svg width="38" height="38" viewBox="0 0 38 38" fill="none" xmlns="http://www.w3.org/2000/svg">
<g clip-path="url(#clip0_319_67)">
<path d="M25.4452 18.0341L27.9051 15.5742L22.0295 9.69862L19.5696 12.1585L13.0829 5.68756C11.8608 4.46544 9.87095 4.46544 8.64883 5.68756L5.67187 8.66452C4.44975 9.88664 4.44975 11.8765 5.67187 13.0986L12.1428 19.5696L4.70044 27.0277L4.70044 32.9033H10.576L18.0341 25.4452L24.5051 31.9162C25.9936 33.4046 27.9991 32.8562 28.9392 31.9162L31.9161 28.9392C33.1383 27.7171 33.1383 25.7272 31.9161 24.5051L25.4452 18.0341ZM14.3834 17.3447L7.89676 10.8737L10.858 7.89678L12.8479 9.88664L10.9991 11.7512L13.2083 13.9604L15.0728 12.0959L17.3447 14.3677L14.3834 17.3447ZM26.73 29.7069L20.259 23.236L23.2359 20.259L25.5078 22.5309L23.6433 24.3954L25.8525 26.6046L27.7171 24.7401L29.7069 26.73L26.73 29.7069Z" fill="black"/>
<path d="M32.4489 11.0304C33.06 10.4194 33.06 9.43227 32.4489 8.82121L28.7826 5.15485C28.0462 4.41844 27.0277 4.70047 26.5733 5.15485L23.7061 8.02213L29.5816 13.8977L32.4489 11.0304Z" fill="black"/>
</g>
<defs>
<clipPath id="clip0_319_67">
<rect width="37.6037" height="37.6037" fill="white"/>
</clipPath>
</defs>
</svg>
