<svg width="65" height="64" viewBox="0 0 65 64" fill="none" xmlns="http://www.w3.org/2000/svg">
<g clip-path="url(#clip0_252_1158)">
<path d="M64.5649 49.59C62.2369 50.182 60.7969 49.616 59.5049 47.676L50.3169 34.964L48.9889 33.204L38.2589 47.718C37.0329 49.464 35.7469 50.224 33.4589 49.606L47.1989 31.162L34.4069 14.502C36.6069 14.074 38.1269 14.292 39.4769 16.262L49.0069 29.132L58.6069 16.332C59.8369 14.586 61.1589 13.922 63.3669 14.566L58.4069 21.142L51.6869 29.892C50.8869 30.892 50.9969 31.576 51.7329 32.542L64.5649 49.59ZM0.580941 30.854L1.70494 25.326C4.76494 14.386 17.3049 9.84002 25.9529 16.6C31.0069 20.576 32.2629 26.2 32.0129 32.5H3.52494C3.09694 43.84 11.2589 50.684 21.6649 47.192C25.3149 45.966 27.4649 43.108 28.5409 39.532C29.0869 37.74 29.9909 37.46 31.6749 37.972C30.8149 42.444 28.8749 46.18 24.7749 48.518C18.6489 52.018 9.90494 50.886 5.30494 46.022C2.56494 43.2 1.43294 39.624 0.924941 35.8C0.844941 35.168 0.684941 34.566 0.564941 33.96C0.575608 32.9254 0.580941 31.8907 0.580941 30.856V30.854ZM3.57694 30.094H29.3209C29.1529 21.894 24.0469 16.07 17.0689 16.02C9.40894 15.96 3.90894 21.646 3.57694 30.094Z" fill="black"/>
</g>
<defs>
<clipPath id="clip0_252_1158">
<rect width="64" height="64" fill="white" transform="translate(0.564941)"/>
</clipPath>
</defs>
</svg>
