<svg width="33" height="33" viewBox="0 0 33 33" fill="none" xmlns="http://www.w3.org/2000/svg">
<g clip-path="url(#clip0_252_1238)">
<path d="M32.615 16.2927C32.615 7.52493 25.5073 0.417236 16.7395 0.417236C7.97171 0.417236 0.864014 7.52493 0.864014 16.2927C0.864014 24.2165 6.66942 30.7844 14.259 31.9754V20.8817H10.2281V16.2927H14.259V12.7952C14.259 8.81636 16.6291 6.6186 20.2554 6.6186C21.9917 6.6186 23.8091 6.92867 23.8091 6.92867V10.8355H21.8073C19.8352 10.8355 19.22 12.0594 19.22 13.3161V16.2927H23.623L22.9192 20.8817H19.22V31.9754C26.8096 30.7844 32.615 24.2165 32.615 16.2927Z" fill="white"/>
</g>
<defs>
<clipPath id="clip0_252_1238">
<rect width="31.751" height="31.751" fill="white" transform="translate(0.864014 0.417236)"/>
</clipPath>
</defs>
</svg>
