<svg width="44" height="64" viewBox="0 0 44 64" fill="none" xmlns="http://www.w3.org/2000/svg">
<g clip-path="url(#clip0_252_1133)">
<path d="M22.2251 32C22.2251 29.1711 23.3489 26.458 25.3493 24.4576C27.3497 22.4572 30.0628 21.3334 32.8918 21.3334C35.7207 21.3334 38.4338 22.4572 40.4342 24.4576C42.4346 26.458 43.5584 29.1711 43.5584 32C43.5584 34.829 42.4346 37.5421 40.4342 39.5425C38.4338 41.5429 35.7207 42.6667 32.8918 42.6667C30.0628 42.6667 27.3497 41.5429 25.3493 39.5425C23.3489 37.5421 22.2251 34.829 22.2251 32Z" fill="#1ABCFE"/>
<path d="M0.891846 53.3333C0.891846 50.5043 2.01565 47.7912 4.01604 45.7908C6.01643 43.7904 8.72954 42.6666 11.5585 42.6666H22.2252V53.3333C22.2252 56.1623 21.1014 58.8754 19.101 60.8758C17.1006 62.8762 14.3875 64 11.5585 64C8.72954 64 6.01643 62.8762 4.01604 60.8758C2.01565 58.8754 0.891846 56.1623 0.891846 53.3333Z" fill="#0ACF83"/>
<path d="M22.2251 0V21.3333H32.8918C35.7207 21.3333 38.4338 20.2095 40.4342 18.2091C42.4346 16.2087 43.5584 13.4956 43.5584 10.6667C43.5584 7.83769 42.4346 5.12458 40.4342 3.12419C38.4338 1.12381 35.7207 0 32.8918 0L22.2251 0Z" fill="#FF7262"/>
<path d="M0.891846 10.6667C0.891846 13.4956 2.01565 16.2087 4.01604 18.2091C6.01643 20.2095 8.72954 21.3333 11.5585 21.3333H22.2252V0H11.5585C8.72954 0 6.01643 1.12381 4.01604 3.12419C2.01565 5.12458 0.891846 7.83769 0.891846 10.6667Z" fill="#F24E1E"/>
<path d="M0.891846 32C0.891846 34.829 2.01565 37.5421 4.01604 39.5425C6.01643 41.5429 8.72954 42.6667 11.5585 42.6667H22.2252V21.3334H11.5585C8.72954 21.3334 6.01643 22.4572 4.01604 24.4576C2.01565 26.458 0.891846 29.1711 0.891846 32Z" fill="#A259FF"/>
</g>
<defs>
<clipPath id="clip0_252_1133">
<rect width="42.6667" height="64" fill="white" transform="translate(0.891846)"/>
</clipPath>
</defs>
</svg>
