<svg width="52" height="52" viewBox="0 0 52 52" fill="none" xmlns="http://www.w3.org/2000/svg">
<path d="M50.0824 23.4666L28.3491 1.73329C27.6824 1.06663 26.7491 0.666626 25.8158 0.666626C24.8824 0.666626 23.9491 1.06663 23.2824 1.73329L18.6158 6.39996L24.0824 11.8666C24.6158 11.6 25.1491 11.4666 25.8158 11.4666C28.0824 11.4666 29.8158 13.2 29.8158 15.4666C29.8158 16.1333 29.6824 16.6666 29.4158 17.2L34.7491 22.5333C35.2824 22.2666 35.8158 22.1333 36.4824 22.1333C38.7491 22.1333 40.4824 23.8666 40.4824 26.1333C40.4824 28.4 38.7491 30.1333 36.4824 30.1333C34.2158 30.1333 32.4824 28.4 32.4824 26.1333C32.4824 25.4666 32.6158 24.9333 32.8824 24.4L27.5491 19.0666C27.4158 19.0666 27.2824 19.2 27.1491 19.2V33.0666C28.7491 33.6 29.8158 35.0666 29.8158 36.8C29.8158 39.0666 28.0824 40.8 25.8158 40.8C23.5491 40.8 21.8158 39.0666 21.8158 36.8C21.8158 35.0666 22.8824 33.6 24.4824 33.0666V19.0666C22.8824 18.5333 21.8158 17.0666 21.8158 15.3333C21.8158 14.6666 21.9491 14.1333 22.2158 13.6L16.7491 8.13329L1.54909 23.4666C0.882422 24.1333 0.482422 25.0666 0.482422 26C0.482422 26.9333 0.882422 27.8666 1.54909 28.5333L23.2824 50.2666C23.9491 50.9333 24.8824 51.3333 25.8158 51.3333C26.7491 51.3333 27.6824 50.9333 28.3491 50.2666L50.0824 28.5333C50.7491 27.8666 51.1491 26.9333 51.1491 26C51.1491 25.0666 50.7491 24.1333 50.0824 23.4666Z" fill="#F4511E"/>
</svg>
