<svg width="33" height="32" viewBox="0 0 33 32" fill="none" xmlns="http://www.w3.org/2000/svg">
<path d="M16.1357 0C12.3365 0.000161529 8.66127 1.38638 5.76769 3.91062C2.87411 6.43487 0.950982 9.93241 0.342398 13.7774C-0.266187 17.6225 0.479492 21.5641 2.44601 24.897C4.41253 28.2299 7.47155 30.7366 11.0757 31.9686C11.8757 32.1122 12.1757 31.62 12.1757 31.1894C12.1757 30.7998 12.1557 29.5079 12.1557 28.134C8.13573 28.8927 7.09574 27.1293 6.77574 26.2065C6.42066 25.3091 5.85779 24.5137 5.13575 23.8893C4.57575 23.5817 3.77576 22.823 5.11573 22.8025C5.62739 22.8595 6.11812 23.042 6.54635 23.3347C6.97458 23.6274 7.32768 24.0216 7.57573 24.484C7.79457 24.887 8.08882 25.2419 8.44163 25.5281C8.79444 25.8144 9.19888 26.0264 9.63177 26.1522C10.0647 26.2779 10.5175 26.3148 10.9643 26.2608C11.4111 26.2068 11.8432 26.0629 12.2357 25.8373C12.3049 25.0034 12.6674 24.2236 13.2557 23.6433C9.69572 23.2332 5.97574 21.8182 5.97574 15.5435C5.95326 13.9131 6.54004 12.3357 7.61573 11.1347C7.12659 9.71772 7.18382 8.16266 7.77573 6.78748C7.77573 6.78748 9.11567 6.35684 12.1757 8.46896C14.7937 7.73071 17.5576 7.73071 20.1756 8.46896C23.2356 6.33636 24.5756 6.78748 24.5756 6.78748C25.1676 8.16264 25.2248 9.71773 24.7356 11.1347C25.8145 12.3336 26.4018 13.9124 26.3756 15.5435C26.3756 21.8387 22.6356 23.2332 19.0757 23.6433C19.4575 24.0401 19.7516 24.5165 19.9379 25.0402C20.1243 25.5638 20.1985 26.1225 20.1556 26.6782C20.1556 28.8723 20.1356 30.6357 20.1356 31.1894C20.1356 31.6201 20.4356 32.1327 21.2356 31.9687C24.8335 30.7266 27.8837 28.214 29.8418 24.8794C31.8 21.5448 32.5386 17.6052 31.9258 13.7639C31.313 9.92261 29.3887 6.4296 26.4963 3.90843C23.604 1.38726 19.932 0.00202583 16.1357 0Z" fill="white"/>
</svg>
