<svg width="65" height="64" viewBox="0 0 65 64" fill="none" xmlns="http://www.w3.org/2000/svg">
<g clip-path="url(#clip0_252_1096)">
<path d="M11.0775 0H53.1839C59.5678 0 64.7293 5.20064 64.7293 11.633V52.417C64.7293 58.8494 59.5678 64.05 53.1839 64.05H11.0775C4.69366 64.05 -0.467773 58.8494 -0.467773 52.417V11.633C-0.467773 5.20064 4.69366 0 11.0775 0Z" fill="#330000"/>
<path d="M31.1254 38.43H21.0198L18.9552 44.8624C18.9009 45.1087 18.6836 45.2729 18.4391 45.2456H13.332C13.0332 45.2456 12.9517 45.0813 13.0332 44.7529L21.7804 19.3792C21.8619 19.1055 21.9434 18.8044 22.0521 18.4759C22.1608 17.9011 22.2151 17.2989 22.2151 16.6968C22.1879 16.5599 22.2966 16.423 22.4324 16.3957H29.4683C29.6856 16.3957 29.7942 16.4778 29.8214 16.6147L39.7368 44.8076C39.8183 45.1087 39.7368 45.2456 39.4651 45.2456H33.7876C33.5974 45.2729 33.4073 45.1361 33.3529 44.9445L31.1254 38.43ZM22.5954 32.8735H29.4954C29.3324 32.2987 29.1151 31.6144 28.8706 30.9027C28.6261 30.1637 28.3816 29.3699 28.1372 28.5488C27.8655 27.7002 27.621 26.8791 27.3494 26.0306C27.0777 25.182 26.8332 24.3882 26.6159 23.5945C26.3986 22.8281 26.2084 22.1164 26.0183 21.4595H25.9639C25.7194 22.6365 25.4206 23.8134 25.0403 24.9904C24.6328 26.3043 24.2253 27.6729 23.7907 29.0415C23.4104 30.4374 23.0029 31.7239 22.5954 32.8735ZM45.6589 21.0763C44.7624 21.1036 43.8931 20.7478 43.2411 20.1182C42.6163 19.4339 42.2903 18.5307 42.3175 17.6C42.2903 16.6694 42.6435 15.7935 43.2955 15.1639C43.9474 14.5344 44.8167 14.2059 45.7132 14.2059C46.7726 14.2059 47.5876 14.5344 48.1852 15.1639C48.7829 15.8209 49.1089 16.6968 49.0817 17.6C49.1089 18.5307 48.7829 19.4339 48.1309 20.1182C47.5061 20.7752 46.5825 21.131 45.6589 21.0763ZM42.6163 44.835V23.7587C42.6163 23.485 42.725 23.3755 42.9695 23.3755H48.3482C48.5927 23.3755 48.7014 23.5123 48.7014 23.7587V44.835C48.7014 45.1361 48.5927 45.2729 48.3482 45.2729H43.0238C42.7522 45.2729 42.6163 45.1087 42.6163 44.835Z" fill="#FF9A00"/>
</g>
<defs>
<clipPath id="clip0_252_1096">
<rect width="64" height="64" fill="white" transform="translate(0.257324)"/>
</clipPath>
</defs>
</svg>
