<svg width="65" height="64" viewBox="0 0 65 64" fill="none" xmlns="http://www.w3.org/2000/svg">
<g clip-path="url(#clip0_252_1125)">
<path d="M11.1304 0H53.3148C59.7105 0 64.8815 5.18553 64.8815 11.5992V52.2646C64.8815 58.6783 59.7105 63.8638 53.3148 63.8638H11.1304C4.73471 63.8638 -0.436279 58.6783 -0.436279 52.2646V11.5992C-0.436279 5.18553 4.73471 0 11.1304 0Z" fill="#49021F"/>
<path d="M23.2964 16.7026V44.8136C23.2964 45.1139 23.1603 45.2503 22.9154 45.2503H17.5811C17.3362 45.2503 17.2273 45.1139 17.2273 44.8136V16.7026C17.2273 16.457 17.3634 16.3478 17.6083 16.3478H22.9154C23.0787 16.3205 23.242 16.4297 23.2692 16.6208C23.2964 16.648 23.2964 16.6753 23.2964 16.7026ZM39.0271 45.5778C37.0131 45.6051 34.9992 45.1957 33.1757 44.3497C31.4611 43.5582 30.0459 42.2482 29.0661 40.6379C28.0592 38.9731 27.5693 36.8989 27.5693 34.4153C27.5421 32.3957 28.0592 30.4033 29.0661 28.6566C30.1003 26.8826 31.5972 25.4089 33.3934 24.4263C35.2986 23.3619 37.5847 22.8434 40.279 22.8434C40.4151 22.8434 40.6056 22.8434 40.8506 22.8707C41.0955 22.898 41.3677 22.898 41.6943 22.9253V14.3009C41.6943 14.1099 41.7759 14.0007 41.9664 14.0007H47.4912C47.6273 13.9734 47.7361 14.0826 47.7634 14.1917V40.2285C47.7634 40.7198 47.7906 41.2656 47.8178 41.8661C47.8722 42.4392 47.8994 42.9851 47.9267 43.449C47.9267 43.6401 47.845 43.8038 47.6545 43.8857C46.2393 44.4861 44.7424 44.9228 43.2183 45.1957C41.8575 45.4414 40.4423 45.5778 39.0271 45.5778ZM41.6943 40.1194V28.1108C41.4493 28.0562 41.2044 28.0016 40.9594 27.9743C40.6601 27.947 40.3607 27.9197 40.0613 27.9197C38.9999 27.9197 37.9385 28.1381 36.9859 28.6293C36.0606 29.0933 35.2713 29.7756 34.6726 30.649C34.0738 31.5223 33.7745 32.6959 33.7745 34.1151C33.7473 35.0703 33.9105 36.0255 34.2371 36.9262C34.5093 37.6631 34.9175 38.3181 35.4618 38.8639C35.9789 39.3552 36.6049 39.7373 37.3125 39.9556C38.0473 40.2013 38.8094 40.3104 39.5714 40.3104C39.9797 40.3104 40.3607 40.2831 40.7145 40.2558C41.0683 40.2831 41.3949 40.2285 41.6943 40.1194Z" fill="#FF3366"/>
</g>
<defs>
<clipPath id="clip0_252_1125">
<rect width="64" height="64" fill="white" transform="translate(0.222656)"/>
</clipPath>
</defs>
</svg>
