<svg width="32" height="32" viewBox="0 0 32 32" fill="none" xmlns="http://www.w3.org/2000/svg">
<path d="M15.8755 2.85883C20.1172 2.85883 20.6195 2.87743 22.2877 2.95185C23.838 3.02006 24.6752 3.28052 25.2333 3.49757C25.9713 3.78283 26.5046 4.13011 27.0565 4.68203C27.6147 5.24015 27.9557 5.76727 28.241 6.50523C28.4581 7.06335 28.7185 7.90674 28.7867 9.45088C28.8611 11.1252 28.8797 11.6276 28.8797 15.8631C28.8797 20.1048 28.8611 20.6071 28.7867 22.2753C28.7185 23.8256 28.4581 24.6628 28.241 25.2209C27.9557 25.9589 27.6085 26.4922 27.0565 27.0441C26.4984 27.6023 25.9713 27.9433 25.2333 28.2286C24.6752 28.4457 23.8318 28.7061 22.2877 28.7743C20.6133 28.8487 20.111 28.8673 15.8755 28.8673C11.6338 28.8673 11.1314 28.8487 9.46328 28.7743C7.91294 28.7061 7.07575 28.4457 6.51763 28.2286C5.77967 27.9433 5.24635 27.5961 4.69443 27.0441C4.13631 26.486 3.79523 25.9589 3.50997 25.2209C3.29292 24.6628 3.03247 23.8194 2.96425 22.2753C2.88983 20.6009 2.87123 20.0986 2.87123 15.8631C2.87123 11.6214 2.88983 11.119 2.96425 9.45088C3.03247 7.90054 3.29292 7.06335 3.50997 6.50523C3.79523 5.76727 4.14251 5.23395 4.69443 4.68203C5.25255 4.12391 5.77967 3.78283 6.51763 3.49757C7.07575 3.28052 7.91914 3.02006 9.46328 2.95185C11.1314 2.87743 11.6338 2.85883 15.8755 2.85883ZM15.8755 0C11.5655 0 11.026 0.0186041 9.33305 0.0930204C7.64628 0.167437 6.48663 0.440297 5.482 0.830983C4.43397 1.24027 3.54718 1.77979 2.66659 2.66659C1.77979 3.54718 1.24027 4.43397 0.830983 5.4758C0.440297 6.48663 0.167437 7.64008 0.0930204 9.32685C0.0186041 11.026 0 11.5655 0 15.8755C0 20.1854 0.0186041 20.725 0.0930204 22.4179C0.167437 24.1047 0.440297 25.2644 0.830983 26.269C1.24027 27.317 1.77979 28.2038 2.66659 29.0844C3.54718 29.965 4.43397 30.5107 5.4758 30.9138C6.48663 31.3045 7.64008 31.5773 9.32685 31.6518C11.0198 31.7262 11.5593 31.7448 15.8693 31.7448C20.1792 31.7448 20.7188 31.7262 22.4117 31.6518C24.0985 31.5773 25.2582 31.3045 26.2628 30.9138C27.3046 30.5107 28.1914 29.965 29.072 29.0844C29.9526 28.2038 30.4983 27.317 30.9014 26.2752C31.2921 25.2644 31.5649 24.1109 31.6394 22.4241C31.7138 20.7312 31.7324 20.1916 31.7324 15.8817C31.7324 11.5717 31.7138 11.0322 31.6394 9.33925C31.5649 7.65248 31.2921 6.49283 30.9014 5.48821C30.5107 4.43397 29.9712 3.54718 29.0844 2.66659C28.2038 1.78599 27.317 1.24027 26.2752 0.837184C25.2644 0.446498 24.1109 0.173638 22.4241 0.0992218C20.725 0.0186041 20.1854 0 15.8755 0Z" fill="black"/>
<path d="M15.8755 7.7207C11.3733 7.7207 7.7207 11.3733 7.7207 15.8755C7.7207 20.3777 11.3733 24.0303 15.8755 24.0303C20.3777 24.0303 24.0303 20.3777 24.0303 15.8755C24.0303 11.3733 20.3777 7.7207 15.8755 7.7207ZM15.8755 21.1653C12.9547 21.1653 10.5857 18.7963 10.5857 15.8755C10.5857 12.9547 12.9547 10.5857 15.8755 10.5857C18.7963 10.5857 21.1653 12.9547 21.1653 15.8755C21.1653 18.7963 18.7963 21.1653 15.8755 21.1653Z" fill="black"/>
<path d="M26.2569 7.39796C26.2569 8.45219 25.4011 9.30178 24.353 9.30178C23.2988 9.30178 22.4492 8.44599 22.4492 7.39796C22.4492 6.34373 23.305 5.49414 24.353 5.49414C25.4011 5.49414 26.2569 6.34993 26.2569 7.39796Z" fill="black"/>
</svg>
