<svg width="33" height="33" viewBox="0 0 33 33" fill="none" xmlns="http://www.w3.org/2000/svg">
<g clip-path="url(#clip0_252_1236)">
<path d="M16.1912 3.27606C20.4329 3.27606 20.9352 3.29467 22.6034 3.36908C24.1537 3.4373 24.9909 3.69776 25.549 3.91481C26.287 4.20007 26.8203 4.54734 27.3722 5.09927C27.9303 5.65739 28.2714 6.1845 28.5567 6.92247C28.7737 7.48059 29.0342 8.32397 29.1024 9.86811C29.1768 11.5425 29.1954 12.0448 29.1954 16.2803C29.1954 20.5221 29.1768 21.0244 29.1024 22.6925C29.0342 24.2429 28.7737 25.0801 28.5567 25.6382C28.2714 26.3761 27.9241 26.9095 27.3722 27.4614C26.8141 28.0195 26.287 28.3606 25.549 28.6458C24.9909 28.8629 24.1475 29.1233 22.6034 29.1916C20.929 29.266 20.4267 29.2846 16.1912 29.2846C11.9494 29.2846 11.4471 29.266 9.77895 29.1916C8.22861 29.1233 7.39143 28.8629 6.83331 28.6458C6.09534 28.3606 5.56203 28.0133 5.01011 27.4614C4.45198 26.9033 4.11091 26.3761 3.82564 25.6382C3.6086 25.0801 3.34814 24.2367 3.27993 22.6925C3.20551 21.0182 3.1869 20.5159 3.1869 16.2803C3.1869 12.0386 3.20551 11.5363 3.27993 9.86811C3.34814 8.31777 3.6086 7.48059 3.82564 6.92247C4.11091 6.1845 4.45818 5.65119 5.01011 5.09927C5.56823 4.54114 6.09534 4.20007 6.83331 3.91481C7.39143 3.69776 8.23481 3.4373 9.77895 3.36908C11.4471 3.29467 11.9494 3.27606 16.1912 3.27606ZM16.1912 0.417236C11.8812 0.417236 11.3417 0.43584 9.64872 0.510257C7.96195 0.584673 6.8023 0.857533 5.79768 1.24822C4.74965 1.65751 3.86285 2.19703 2.98226 3.08382C2.09546 3.96442 1.55595 4.85121 1.14666 5.89304C0.755971 6.90386 0.483111 8.05731 0.408694 9.74409C0.334278 11.4433 0.315674 11.9828 0.315674 16.2927C0.315674 20.6027 0.334278 21.1422 0.408694 22.8352C0.483111 24.5219 0.755971 25.6816 1.14666 26.6862C1.55595 27.7342 2.09546 28.621 2.98226 29.5016C3.86285 30.3822 4.74965 30.9279 5.79148 31.331C6.8023 31.7217 7.95575 31.9946 9.64252 32.069C11.3355 32.1434 11.875 32.162 16.185 32.162C20.4949 32.162 21.0344 32.1434 22.7274 32.069C24.4142 31.9946 25.5738 31.7217 26.5784 31.331C27.6203 30.9279 28.5071 30.3822 29.3877 29.5016C30.2683 28.621 30.814 27.7342 31.2171 26.6924C31.6077 25.6816 31.8806 24.5281 31.955 22.8414C32.0294 21.1484 32.048 20.6089 32.048 16.2989C32.048 11.989 32.0294 11.4495 31.955 9.75649C31.8806 8.06972 31.6077 6.91006 31.2171 5.90544C30.8264 4.85121 30.2869 3.96442 29.4001 3.08382C28.5195 2.20323 27.6327 1.65751 26.5908 1.25442C25.58 0.863734 24.4266 0.590874 22.7398 0.516458C21.0406 0.43584 20.5011 0.417236 16.1912 0.417236Z" fill="white"/>
<path d="M16.1912 8.13794C11.689 8.13794 8.03638 11.7905 8.03638 16.2927C8.03638 20.7949 11.689 24.4475 16.1912 24.4475C20.6934 24.4475 24.346 20.7949 24.346 16.2927C24.346 11.7905 20.6934 8.13794 16.1912 8.13794ZM16.1912 21.5825C13.2703 21.5825 10.9014 19.2136 10.9014 16.2927C10.9014 13.3719 13.2703 11.003 16.1912 11.003C19.112 11.003 21.4809 13.3719 21.4809 16.2927C21.4809 19.2136 19.112 21.5825 16.1912 21.5825Z" fill="white"/>
<path d="M26.5723 7.8152C26.5723 8.86943 25.7165 9.71902 24.6685 9.71902C23.6142 9.71902 22.7646 8.86323 22.7646 7.8152C22.7646 6.76096 23.6204 5.91138 24.6685 5.91138C25.7165 5.91138 26.5723 6.76717 26.5723 7.8152Z" fill="white"/>
</g>
<defs>
<clipPath id="clip0_252_1236">
<rect width="31.751" height="31.751" fill="white" transform="translate(0.315674 0.417236)"/>
</clipPath>
</defs>
</svg>
