<svg width="65" height="64" viewBox="0 0 65 64" fill="none" xmlns="http://www.w3.org/2000/svg">
<path fill-rule="evenodd" clip-rule="evenodd" d="M24.0153 49.4937C24.0153 49.4937 21.571 50.916 25.7567 51.3964C30.8289 51.9757 33.4198 51.8923 39.0075 50.8353C39.0075 50.8353 40.4787 51.7564 42.5322 52.5533C30.0023 57.9223 14.175 52.2427 24.0153 49.4937ZM22.4836 42.4873C22.4836 42.4873 19.7415 44.517 23.9309 44.9502C29.3493 45.5098 33.6263 45.5554 41.0319 44.1305C41.0319 44.1305 42.0544 45.1684 43.6636 45.7354C28.5163 50.1658 11.6462 46.0842 22.4836 42.4873Z" fill="#3174B9"/>
<path fill-rule="evenodd" clip-rule="evenodd" d="M35.3911 30.6009C38.4799 34.1564 34.5815 37.3541 34.5815 37.3541C34.5815 37.3541 42.4208 33.308 38.8202 28.2395C35.4585 23.5149 32.8799 21.1678 46.838 13.0736C46.838 13.0736 24.9275 18.5435 35.3911 30.6009Z" fill="#CA3132"/>
<path fill-rule="evenodd" clip-rule="evenodd" d="M51.962 54.6763C51.962 54.6763 53.7713 56.1681 49.969 57.3218C42.7386 59.5118 19.8698 60.1722 13.5175 57.4089C11.2357 56.415 15.5169 55.0373 16.8638 54.7464C18.2686 54.4427 19.0703 54.4979 19.0703 54.4979C16.5309 52.7098 2.65676 58.0099 12.0241 59.5304C37.567 63.672 58.5866 57.6658 51.962 54.6763ZM25.1921 35.2271C25.1921 35.2271 13.561 37.9905 21.0739 38.9949C24.2471 39.4191 30.5681 39.3214 36.4606 38.8272C41.2749 38.4231 46.1072 37.5588 46.1072 37.5588C46.1072 37.5588 44.4109 38.2867 43.1819 39.1245C31.3687 42.2319 8.55141 40.7846 15.1208 37.6082C20.6752 34.9213 25.1921 35.2271 25.1921 35.2271ZM46.0589 46.8895C58.0664 40.6514 52.5147 34.6553 48.6385 35.4633C47.6909 35.6614 47.2656 35.8323 47.2656 35.8323C47.2656 35.8323 47.6192 35.2791 48.2913 35.0413C55.9581 32.3469 61.8533 42.99 45.8194 47.2049C45.8189 47.2049 46.0036 47.0382 46.0589 46.8895Z" fill="#3174B9"/>
<path fill-rule="evenodd" clip-rule="evenodd" d="M38.8201 0C38.8201 0 45.4686 6.65278 32.5124 16.8796C22.122 25.0864 30.1435 29.7642 32.5092 35.1109C26.4431 29.6389 21.9936 24.8209 24.9783 20.3379C29.3604 13.7574 41.5028 10.5661 38.8201 0Z" fill="#CA3132"/>
<path fill-rule="evenodd" clip-rule="evenodd" d="M26.3739 63.7991C37.8978 64.536 55.5976 63.3898 56.0176 57.9358C56.0176 57.9358 55.2117 60.0031 46.4926 61.6431C36.6554 63.4949 24.5205 63.2794 17.3257 62.0917C17.3257 62.0917 18.8 63.3117 26.3739 63.7991Z" fill="#3174B9"/>
</svg>
