<svg width="64" height="64" viewBox="0 0 64 64" fill="none" xmlns="http://www.w3.org/2000/svg">
<path d="M-0.00341797 64V0H63.9966V64H-0.00341797Z" fill="#FFD600"/>
<path d="M41.842 47.9058C43.0722 49.904 44.4091 51.8187 47.2411 51.8187C49.6197 51.8187 50.8677 50.6365 50.8677 49.0009C50.8677 47.0436 49.5771 46.3485 46.9602 45.2089L45.5255 44.5973C41.3851 42.8409 38.6313 40.64 38.6313 35.9911C38.6313 31.7067 41.9113 28.4462 47.0366 28.4462C50.6864 28.4462 53.3086 29.7102 55.2002 33.0205L50.7308 35.8773C49.7477 34.1209 48.6846 33.4293 47.0366 33.4293C45.3548 33.4293 44.29 34.4907 44.29 35.8773C44.29 37.5911 45.3566 38.2845 47.8188 39.3458L49.2535 39.9573C54.1335 42.0356 56.8855 44.1582 56.8855 48.9298C56.8855 54.0711 52.8251 56.8889 47.3744 56.8889C42.0428 56.8889 39.0153 54.2133 37.33 50.9013L41.842 47.9058ZM21.2446 48.0516C22.1442 49.6622 23.5113 50.9013 25.4775 50.9013C27.3584 50.9013 28.4411 50.1582 28.4411 47.2693V28.4445H34.3664V48.1796C34.3664 54.1653 30.8944 56.8889 25.8242 56.8889C21.2428 56.8889 17.9362 53.7849 16.5886 50.9013L21.2446 48.0516Z" fill="#000001"/>
</svg>
