<svg width="33" height="33" viewBox="0 0 33 33" fill="none" xmlns="http://www.w3.org/2000/svg">
<g clip-path="url(#clip0_252_1235)">
<path d="M29.9417 0.417236H2.88513C1.58905 0.417236 0.541016 1.44046 0.541016 2.70554V29.8737C0.541016 31.1388 1.58905 32.1682 2.88513 32.1682H29.9417C31.2378 32.1682 32.292 31.1388 32.292 29.8799V2.70554C32.292 1.44046 31.2378 0.417236 29.9417 0.417236ZM9.96089 27.4738H5.24785V12.3177H9.96089V27.4738ZM7.60437 10.2526C6.09124 10.2526 4.86957 9.03093 4.86957 7.524C4.86957 6.01707 6.09124 4.7954 7.60437 4.7954C9.1113 4.7954 10.333 6.01707 10.333 7.524C10.333 9.02473 9.1113 10.2526 7.60437 10.2526ZM27.5976 27.4738H22.8907V20.1066C22.8907 18.3516 22.8597 16.0881 20.4412 16.0881C17.9916 16.0881 17.6196 18.0043 17.6196 19.9825V27.4738H12.9189V12.3177H17.4335V14.3889H17.4955C18.1219 13.1982 19.6598 11.9394 21.9481 11.9394C26.717 11.9394 27.5976 15.0773 27.5976 19.1578V27.4738Z" fill="white"/>
</g>
<defs>
<clipPath id="clip0_252_1235">
<rect width="31.751" height="31.751" fill="white" transform="translate(0.541016 0.417236)"/>
</clipPath>
</defs>
</svg>
