<svg width="32" height="32" viewBox="0 0 32 32" fill="none" xmlns="http://www.w3.org/2000/svg">
<path d="M29.4007 0H2.34412C1.04803 0 0 1.02323 0 2.2883V29.4565C0 30.7216 1.04803 31.751 2.34412 31.751H29.4007C30.6967 31.751 31.751 30.7216 31.751 29.4627V2.2883C31.751 1.02323 30.6967 0 29.4007 0ZM9.41987 27.0565H4.70683V11.9004H9.41987V27.0565ZM7.06335 9.83536C5.55022 9.83536 4.32855 8.61369 4.32855 7.10676C4.32855 5.59983 5.55022 4.37816 7.06335 4.37816C8.57028 4.37816 9.79195 5.59983 9.79195 7.10676C9.79195 8.60749 8.57028 9.83536 7.06335 9.83536ZM27.0565 27.0565H22.3497V19.6893C22.3497 17.9343 22.3187 15.6708 19.9002 15.6708C17.4506 15.6708 17.0786 17.5871 17.0786 19.5653V27.0565H12.3779V11.9004H16.8925V13.9717H16.9545C17.5809 12.781 19.1188 11.5221 21.4071 11.5221C26.176 11.5221 27.0565 14.66 27.0565 18.7405V27.0565Z" fill="black"/>
</svg>
