<svg width="36" height="36" viewBox="0 0 36 36" fill="none" xmlns="http://www.w3.org/2000/svg">
<path d="M17.1967 36C16.7655 36 16.3292 35.8894 15.9261 35.6556C15.8411 35.6063 13.8239 34.4327 11.7851 32.7848C8.54484 30.165 6.96967 27.7446 6.96967 25.3847C6.96967 20.2586 12.3733 15.4321 16.561 15.4321C18.6617 15.4321 20.9323 17.1241 24.1517 21.0901C25.0056 22.1411 25.7859 23.1855 26.4015 24.0393C28.7188 22.6065 30.7727 20.6971 30.7727 19.4593C30.7727 18.589 29.2552 15.1878 25.7471 11.2704C22.6162 7.77431 19.2002 5.42491 17.2471 5.42491C15.9772 5.42491 13.3207 7.13561 9.67437 11.936C6.9416 15.5337 4.9021 19.2091 4.88194 19.2457C4.16419 20.5448 2.56743 20.9945 1.31479 20.2497C0.0628673 19.5049 -0.371238 17.8487 0.345792 16.5496C0.43506 16.3875 2.56959 12.5366 5.53058 8.62891C9.93138 2.82227 13.7635 0 17.2478 0C22.0712 0 27.0429 4.74736 29.577 7.5771C32.6819 11.0448 36 15.9871 36 19.4586C36 22.2144 34.3284 24.87 31.0319 27.3517C28.8952 28.96 26.7715 29.961 26.6822 30.0029C25.5289 30.543 24.1669 30.147 23.4513 29.0631C23.4383 29.0437 22.1173 27.0491 20.468 24.9746C17.9461 21.8027 16.736 21.0333 16.4098 20.8667C15.8749 20.9407 14.8556 21.3799 13.8074 22.4168C12.8377 23.376 12.2085 24.5286 12.1969 25.3616C12.2538 25.6709 12.8801 26.8198 15.1385 28.6186C16.8036 29.9446 18.4587 30.9105 18.4753 30.9202C19.7337 31.6516 20.1843 33.304 19.4803 34.6105C19.0015 35.4987 18.1131 36 17.1967 36Z" fill="black"/>
</svg>
