<svg width="103" height="96" viewBox="0 0 103 96" fill="none" xmlns="http://www.w3.org/2000/svg">
<path d="M49.298 95.2976C48.08 95.2976 46.8478 95.0064 45.7091 94.3904C45.4692 94.2605 39.7717 91.1689 34.0132 86.8276C24.8611 79.9261 20.4121 73.55 20.4121 67.3333C20.4121 53.8293 35.6745 41.1145 47.5025 41.1145C53.4358 41.1145 59.849 45.5719 68.9422 56.0196C71.3538 58.7885 73.5579 61.5397 75.2964 63.789C81.8418 60.0145 87.643 54.9845 87.643 51.7236C87.643 49.431 83.3566 40.471 73.4481 30.1511C64.6051 20.9412 54.9568 14.7521 49.4403 14.7521C45.8535 14.7521 38.3504 19.2586 28.0514 31.9046C20.3328 41.3821 14.5723 51.0644 14.5154 51.1608C12.4881 54.583 7.97817 55.7677 4.44013 53.8057C0.904129 51.8437 -0.321984 47.4808 1.70324 44.0585C1.95537 43.6315 7.98427 33.4868 16.3475 23.1925C28.7773 7.89579 39.6009 0.460938 49.4423 0.460938C63.0658 0.460938 77.1081 12.9672 84.2655 20.4217C93.0354 29.5568 102.407 42.5767 102.407 51.7217C102.407 58.9814 97.6857 65.9774 88.375 72.5149C82.34 76.7518 76.3416 79.3888 76.0894 79.4991C72.832 80.9219 68.9849 79.8789 66.9637 77.0234C66.9271 76.9722 63.1959 71.7178 58.5375 66.2529C51.4147 57.897 47.9966 55.8701 47.0755 55.4312C45.5647 55.626 42.6855 56.7832 39.7249 59.5147C36.986 62.0415 35.2089 65.078 35.1763 67.2723C35.337 68.087 37.106 71.1137 43.4846 75.8525C48.1878 79.3456 52.8624 81.8901 52.9092 81.9157C56.4635 83.8423 57.7364 88.1954 55.7478 91.6373C54.3956 93.9771 51.8864 95.2976 49.298 95.2976Z" fill="white"/>
</svg>
