<svg width="65" height="64" viewBox="0 0 65 64" fill="none" xmlns="http://www.w3.org/2000/svg">
<g clip-path="url(#clip0_252_1207)">
<path fill-rule="evenodd" clip-rule="evenodd" d="M0.0302734 45.3561H2.15878V36.9519L5.44093 44.2811C5.83058 45.1601 6.35096 45.4696 7.39063 45.4696C8.43067 45.4696 8.95068 45.1601 9.34033 44.2811L12.6225 36.9519V45.3561H14.7346V36.9679C14.7346 36.1539 14.4094 35.7622 13.7434 35.5505C12.1349 35.0456 11.046 35.4855 10.5588 36.577L7.34183 43.7923L4.22246 36.577C3.75124 35.4855 2.64638 35.0456 1.0379 35.5505C0.355466 35.7622 0.0306377 36.1535 0.0306377 36.9679V45.3561H0.0302734ZM16.5055 38.5149H18.6176V43.1407C18.6016 43.401 18.6988 43.9876 19.8689 44.004C20.4537 44.0197 24.4343 44.004 24.4667 44.004V38.4985H26.5952C26.6112 38.4985 26.5952 46.0066 26.5952 46.0395C26.6112 47.896 24.3043 48.2866 23.2482 48.3195H16.5543V46.8863C16.5543 46.8863 23.2322 46.9028 23.2482 46.8863C24.6131 46.756 24.4507 46.0723 24.4507 45.8442V45.29H19.9501C17.854 45.2579 16.5215 44.3453 16.5055 43.2867C16.5055 43.1892 16.5543 38.5642 16.5055 38.5149ZM62.1454 33.189C60.8461 33.1566 59.8545 33.2704 58.9932 33.645C58.75 33.7428 58.376 33.7428 58.3276 34.0524C58.4576 34.1819 58.4896 34.394 58.5872 34.5736C58.7984 34.8996 59.14 35.3388 59.4484 35.5669C59.7736 35.8279 60.1148 36.0882 60.4721 36.3163C61.1221 36.7069 61.8369 36.9186 62.4378 37.3103C62.8118 37.5377 63.169 37.8316 63.5266 38.0919C63.6887 38.2222 63.8191 38.4178 64.0303 38.4989V38.4668C63.9167 38.32 63.8839 38.1083 63.7863 37.9448L63.299 37.4563C62.8282 36.8376 62.2266 36.2835 61.5926 35.8279C61.089 35.4694 59.9517 34.9646 59.7405 34.3783C59.7241 34.3619 59.7077 34.3619 59.7077 34.3455C60.0653 34.2962 60.4881 34.1666 60.8129 34.0845C61.3657 33.9385 61.869 33.9706 62.4375 33.8242C62.6978 33.7424 62.9575 33.6775 63.2178 33.5961V33.4493C62.9254 33.1562 62.7306 32.7492 62.4058 32.4885C61.5773 31.772 60.6669 31.0715 59.7409 30.4852C59.2208 30.1432 58.5872 29.9314 58.0351 29.6548C57.856 29.5733 57.5308 29.5244 57.4015 29.3616C57.1084 29.0032 56.9627 28.5308 56.7351 28.1074C56.2584 27.1784 55.8141 26.2331 55.403 25.2732C55.127 24.638 54.9314 24.0029 54.5909 23.4163C52.9009 20.6475 51.0972 18.9701 48.2866 17.3249C47.6858 16.9828 46.9709 16.8365 46.2069 16.6572C45.8009 16.6244 45.3949 16.6083 44.9885 16.5755C44.7445 16.4776 44.4848 16.1684 44.2408 16.0217C43.3148 15.4355 40.9263 14.1487 40.2435 15.8425C39.8047 16.9011 40.8935 17.9436 41.2832 18.4813C41.5599 18.8559 41.9004 19.2797 42.096 19.7027C42.2252 19.9794 42.2416 20.2565 42.3556 20.5496C42.6316 21.2826 42.8592 22.0806 43.2005 22.7482C43.3789 23.0903 43.5737 23.4488 43.8013 23.7583C43.9313 23.9375 44.1753 24.0189 44.2073 24.3121C43.9797 24.6377 43.9641 25.1265 43.8341 25.5335C43.2653 27.374 43.4765 29.638 44.3213 31.0058C44.5817 31.4128 45.1826 32.3086 46.0278 31.9669C46.759 31.6573 46.5962 30.7451 46.8074 29.9147C46.8566 29.7354 46.8238 29.6051 46.921 29.4748V29.5073C47.1323 29.9632 47.3599 30.4031 47.5875 30.8426C48.0747 31.6409 48.9523 32.4878 49.6999 33.0412C50.0732 33.3343 50.382 33.8395 50.8856 34.002V33.9691H50.8372C50.7396 33.8231 50.5932 33.7578 50.4796 33.6435C50.1872 33.3504 49.8624 32.9919 49.6184 32.6663C48.9527 31.7541 48.3515 30.7444 47.799 29.7018C47.5387 29.197 47.3111 28.6432 47.1006 28.1384C47.0186 27.9431 47.0186 27.65 46.8402 27.5357C46.5962 27.9102 46.2557 28.2198 46.0598 28.6597C45.7674 29.3602 45.719 30.2231 45.6217 31.1029C45.5562 31.1353 45.5726 31.1189 45.5398 31.1518C45.0205 31.0215 44.8413 30.4838 44.6465 30.0278C44.1757 28.8714 44.0777 27.0148 44.5001 25.6791C44.6137 25.3371 45.1181 24.2621 44.9069 23.9364C44.8086 23.6269 44.5001 23.4316 44.3217 23.1874C44.0941 22.8943 43.8829 22.5033 43.7208 22.1613C43.3312 21.249 43.152 20.2393 42.7292 19.3275C42.518 18.8876 42.1936 18.4477 41.9172 18.0732C41.6084 17.6333 41.2671 17.3242 41.0239 16.8029C40.9427 16.6236 40.8291 16.3305 40.9427 16.1349C40.9911 16.0045 41.0403 15.9556 41.1695 15.9067C41.3808 15.7439 41.9823 15.9721 42.2092 16.0531C42.7944 16.3137 43.298 16.5419 43.8017 16.8839C44.0457 17.0467 44.2896 17.3559 44.5821 17.4377H44.9073C45.4273 17.5516 46.0117 17.4702 46.499 17.6169C47.3602 17.8772 48.1399 18.2846 48.8391 18.7409C50.9836 20.0926 52.7225 22.0145 53.9245 24.311C54.1194 24.6855 54.2006 25.0275 54.3633 25.4185C54.7049 26.2168 55.143 27.0309 55.4842 27.7963C55.8094 28.5783 56.1506 29.3602 56.6215 29.995C56.8819 30.337 57.8563 30.5162 58.2952 30.6951C58.604 30.8254 59.1072 30.9718 59.4004 31.1514C59.9688 31.477 60.5049 31.8844 61.0413 32.2589C61.3005 32.44 62.1126 32.847 62.1454 33.189Z" fill="#00678C"/>
<path fill-rule="evenodd" clip-rule="evenodd" d="M45.5724 19.0356C45.348 19.0357 45.1245 19.0632 44.9067 19.1174V19.1499H44.9552C45.0852 19.4105 45.3128 19.5898 45.4752 19.8176C45.5888 20.0782 45.7192 20.3388 45.8328 20.5995L45.8812 20.5505C46.1088 20.4042 46.2064 20.1435 46.2064 19.7365C46.1252 19.6387 46.1088 19.5248 46.028 19.4105C45.914 19.2474 45.7192 19.166 45.5724 19.0356Z" fill="#00678C"/>
<path fill-rule="evenodd" clip-rule="evenodd" d="M28.2363 45.3561H34.3291C35.0439 45.3561 35.7423 45.2094 36.2948 44.9484C37.2044 44.5257 37.6596 43.9551 37.6596 43.206V41.6426C37.6596 41.0403 37.1396 40.454 36.1491 40.0791C35.6127 39.8674 34.9627 39.7696 34.3291 39.7696H31.7621C30.9009 39.7696 30.4948 39.5086 30.3972 38.9391C30.3809 38.8742 30.3809 38.8088 30.3809 38.7438V37.7827C30.3809 37.7177 30.3809 37.6688 30.3972 37.6038C30.4948 37.164 30.7221 37.0336 31.4697 36.9687C31.5345 36.9687 31.6157 36.9522 31.6809 36.9522H37.7412V35.5355H31.7785C30.9173 35.5355 30.4784 35.6005 30.0724 35.7144C28.8051 36.1214 28.2527 36.7405 28.2527 37.832V39.0698C28.2527 40.031 29.3412 40.845 31.1449 41.0403C31.3561 41.0403 31.5509 41.0567 31.7621 41.0567H33.9558C34.037 41.0567 34.1178 41.0567 34.1827 41.0731C34.8655 41.1381 35.1415 41.252 35.3527 41.4959C35.4663 41.6262 35.5155 41.7404 35.5155 41.8872V43.125C35.5155 43.2718 35.4179 43.4674 35.2067 43.6299C35.0275 43.793 34.7187 43.8909 34.3127 43.923C34.2315 43.923 34.167 43.9394 34.0851 43.9394H28.2363V45.3561ZM50.8855 42.8797C50.8855 44.3457 51.9579 45.1597 54.1516 45.3229C54.3464 45.3393 54.5577 45.3558 54.7525 45.3558H60.2768V43.9383H54.7197C53.4685 43.9383 52.9976 43.6288 52.9976 42.8797V35.5348H50.8851V42.8797H50.8855ZM39.0085 42.9611V37.9126C39.0085 36.6259 39.9018 35.8443 41.689 35.5998C41.8682 35.5669 42.0794 35.5669 42.2579 35.5669H46.2869C46.4817 35.5669 46.6609 35.5669 46.8721 35.5998C48.643 35.8443 49.5527 36.6259 49.5527 37.9126V42.9611C49.5527 44.004 49.163 44.5574 48.2854 44.9159L50.3815 46.8053H47.9121L46.2221 45.2904L44.5156 45.3882H42.2575C41.8678 45.3882 41.4614 45.3397 41.0063 45.2094C39.6585 44.8505 39.0085 44.134 39.0085 42.9611ZM41.2994 42.8315C41.2994 42.9129 41.3158 42.9775 41.3322 43.0597C41.4622 43.6456 42.0142 43.9715 42.8427 43.9715H44.7767L43.0058 42.3752H45.4752L47.0185 43.7598C47.2953 43.6131 47.4901 43.3849 47.5549 43.0918C47.5713 43.0104 47.5713 42.9458 47.5713 42.8801V38.0269C47.5713 37.9776 47.5713 37.913 47.5549 37.8473C47.4249 37.2939 46.8728 36.9847 46.06 36.9847H42.8431C41.9006 36.9847 41.2998 37.3917 41.2998 38.0269L41.2994 42.8315ZM61.252 45.3561H61.5608V44.1833H61.9832V43.9387H60.8295V44.1833H61.252V45.3561ZM63.6241 45.3561H63.9001V43.9387H63.4777L63.1044 44.9163L62.7312 43.9387H62.2924V45.3561H62.5848V44.2811L62.9908 45.3561H63.202L63.6081 44.2811H63.6245V45.3561H63.6241Z" fill="#CE8B2C"/>
</g>
<defs>
<clipPath id="clip0_252_1207">
<rect width="64" height="64" fill="white" transform="translate(0.0302734)"/>
</clipPath>
</defs>
</svg>
