<svg width="57" height="64" viewBox="0 0 57 64" fill="none" xmlns="http://www.w3.org/2000/svg">
<g clip-path="url(#clip0_252_1147)">
<path d="M28.631 64C27.773 64 26.9722 63.7668 26.2287 63.3586L18.6213 58.7517C17.4774 58.1102 18.0493 57.877 18.3926 57.7603C19.9369 57.2355 20.2229 57.1189 21.8244 56.1859C21.996 56.0692 22.2248 56.1275 22.3964 56.2442L28.2306 59.8014C28.4594 59.918 28.7454 59.918 28.9169 59.8014L51.7389 46.3307C51.9677 46.214 52.0821 45.9808 52.0821 45.6892V18.806C52.0821 18.5145 51.9677 18.2812 51.7389 18.1646L28.9169 4.75223C28.6882 4.63561 28.4021 4.63561 28.2306 4.75223L5.40863 18.1646C5.17984 18.2812 5.06544 18.5728 5.06544 18.806V45.6892C5.06544 45.9224 5.17984 46.214 5.40863 46.3307L11.6432 50.0045C15.0179 51.7539 17.1342 49.7129 17.1342 47.6719V21.1386C17.1342 20.7888 17.4202 20.4389 17.8206 20.4389H20.7377C21.0808 20.4389 21.424 20.7305 21.424 21.1386V47.6719C21.424 52.2788 18.9645 54.9613 14.6746 54.9613C13.3591 54.9613 12.3296 54.9613 9.41245 53.5034L3.4067 50.0045C1.91956 49.1297 1.00439 47.4969 1.00439 45.7475V18.8644C1.00439 17.115 1.91956 15.4822 3.4067 14.6074L26.2287 1.13672C27.6586 0.320313 29.6033 0.320313 31.0333 1.13672L53.8552 14.6074C55.3424 15.4822 56.2575 17.115 56.2575 18.8644V45.7475C56.2575 47.4969 55.3424 49.1297 53.8552 50.0045L31.0333 63.4752C30.3469 63.7668 29.489 64 28.631 64Z" fill="#5FA04E"/>
<path d="M35.7235 45.5142C25.7139 45.5142 23.6548 40.849 23.6548 36.8836C23.6548 36.5337 23.9407 36.1839 24.3411 36.1839H27.3154C27.6586 36.1839 27.9446 36.4171 27.9446 36.767C28.4022 39.8576 29.7178 41.3738 35.7807 41.3738C40.5853 41.3738 42.6445 40.2658 42.6445 37.6417C42.6445 36.1255 42.0725 35.0175 34.5795 34.2594C28.345 33.6179 24.4556 32.2184 24.4556 27.145C24.4556 22.4215 28.345 19.6224 34.8656 19.6224C42.1868 19.6224 45.7903 22.1883 46.2479 27.7865C46.2479 27.9615 46.1907 28.1364 46.0763 28.3114C45.962 28.4279 45.7903 28.5446 45.6187 28.5446H42.5873C42.3012 28.5446 42.0153 28.3114 41.9581 28.0197C41.2717 24.8124 39.4986 23.7627 34.8084 23.7627C29.5461 23.7627 28.917 25.6289 28.917 27.0284C28.917 28.7195 29.6606 29.2444 36.7531 30.1774C43.7884 31.1104 47.1059 32.4517 47.1059 37.4668C47.1059 42.5984 42.9304 45.5142 35.7235 45.5142Z" fill="#5FA04E"/>
</g>
<defs>
<clipPath id="clip0_252_1147">
<rect width="56.32" height="64" fill="white" transform="translate(0.371582)"/>
</clipPath>
</defs>
</svg>
