<svg width="65" height="64" viewBox="0 0 65 64" fill="none" xmlns="http://www.w3.org/2000/svg">
<g clip-path="url(#clip0_252_1113)">
<path d="M11.205 0H53.2785C59.6574 0 64.8148 5.19658 64.8148 11.6239V52.3761C64.8148 58.8034 59.6574 64 53.2785 64H11.205C4.8261 64 -0.331299 58.8034 -0.331299 52.3761V11.6239C-0.331299 5.19658 4.8261 0 11.205 0Z" fill="#001E36"/>
<path d="M14.3264 44.882V16.7384C14.3264 16.5469 14.4078 16.4375 14.5979 16.4375C15.0593 16.4375 15.4936 16.4375 16.1179 16.4102C16.7694 16.3828 17.448 16.3828 18.1809 16.3555C18.9138 16.3281 19.701 16.3281 20.5424 16.3008C21.3839 16.2734 22.1982 16.2734 23.0126 16.2734C25.2384 16.2734 27.0842 16.5469 28.6043 17.1213C29.9615 17.5863 31.2101 18.3521 32.2416 19.364C33.1102 20.2392 33.7888 21.3059 34.2231 22.482C34.6303 23.6307 34.8474 24.8068 34.8474 26.0375C34.8474 28.3897 34.3046 30.3316 33.2188 31.8632C32.133 33.3948 30.6129 34.5435 28.8486 35.1999C27.0028 35.8837 24.9669 36.1298 22.7411 36.1298C22.0897 36.1298 21.6554 36.1298 21.3839 36.1025C21.1125 36.0751 20.7324 36.0751 20.2167 36.0751V44.8546C20.2439 45.0461 20.1081 45.2102 19.9181 45.2375H14.6521C14.435 45.2375 14.3264 45.1281 14.3264 44.882ZM20.2439 21.7162V30.9059C20.6239 30.9333 20.9767 30.9606 21.3025 30.9606H22.7411C23.7997 30.9606 24.8584 30.7965 25.8627 30.4683C26.7313 30.2222 27.4914 29.7025 28.0885 29.0187C28.6586 28.335 28.93 27.4051 28.93 26.2016C28.9571 25.3538 28.74 24.5059 28.3057 23.7675C27.8442 23.0563 27.1928 22.5093 26.4056 22.2085C25.4013 21.7982 24.3155 21.6341 23.2026 21.6615C22.4968 21.6615 21.8725 21.6615 21.3568 21.6888C20.8139 21.6615 20.4339 21.6888 20.2439 21.7162ZM51.7854 29.2375C50.9711 28.7999 50.1025 28.4991 49.1796 28.3076C48.1752 28.0888 47.1709 27.9521 46.1394 27.9521C45.5965 27.9247 45.0265 28.0068 44.5108 28.1435C44.1579 28.2256 43.8593 28.417 43.6693 28.6905C43.5336 28.9093 43.4522 29.1828 43.4522 29.429C43.4522 29.6751 43.5607 29.9213 43.7236 30.1401C43.9679 30.441 44.2936 30.6871 44.6465 30.8786C45.2708 31.2068 45.9223 31.5076 46.5737 31.7811C48.0395 32.2734 49.451 32.9572 50.7539 33.7777C51.6497 34.3521 52.3826 35.1179 52.8983 36.0478C53.3326 36.923 53.5498 37.8803 53.5227 38.8649C53.5498 40.1504 53.1698 41.4358 52.464 42.5025C51.704 43.5965 50.6454 44.4444 49.4239 44.9367C48.0938 45.511 46.4652 45.8119 44.5108 45.8119C43.2621 45.8119 42.0407 45.7025 40.8192 45.4563C39.8691 45.2922 38.9191 44.9914 38.0505 44.5811C37.8604 44.4717 37.7247 44.2803 37.7519 44.0615V39.3025C37.7519 39.2204 37.779 39.111 37.8604 39.0563C37.9419 39.0016 38.0233 39.029 38.1047 39.0837C39.1634 39.7127 40.2763 40.1504 41.4706 40.4239C42.5021 40.6974 43.5879 40.8341 44.6736 40.8341C45.7051 40.8341 46.438 40.6974 46.9266 40.4512C47.3609 40.2598 47.6595 39.7948 47.6595 39.3025C47.6595 38.9196 47.4424 38.564 47.008 38.2085C46.5737 37.8529 45.678 37.4427 44.3479 36.923C42.9636 36.4307 41.6878 35.7743 40.4934 34.9538C39.652 34.3521 38.9462 33.5589 38.4305 32.629C37.9962 31.7538 37.779 30.7965 37.8062 29.8392C37.8062 28.6632 38.1319 27.5418 38.7291 26.5298C39.4077 25.4358 40.412 24.5606 41.5792 24.0136C42.855 23.3572 44.4565 23.0563 46.3837 23.0563C47.4966 23.0563 48.6367 23.1384 49.7496 23.3025C50.5639 23.4119 51.3511 23.6307 52.084 23.9316C52.1926 23.9589 52.3012 24.0683 52.3555 24.1777C52.3826 24.2871 52.4097 24.3965 52.4097 24.5059V28.964C52.4097 29.0734 52.3555 29.1828 52.274 29.2375C52.0297 29.2922 51.894 29.2922 51.7854 29.2375Z" fill="#31A8FF"/>
</g>
<defs>
<clipPath id="clip0_252_1113">
<rect width="64" height="64" fill="white" transform="translate(0.168701)"/>
</clipPath>
</defs>
</svg>
