<svg width="65" height="64" viewBox="0 0 65 64" fill="none" xmlns="http://www.w3.org/2000/svg">
<path d="M56.1433 14.8581C52.456 10.0834 47.4356 6.50944 41.7171 4.58814C35.9985 2.66685 29.8386 2.48457 24.0164 4.06436C18.1942 5.64415 12.9713 8.91504 9.00815 13.4634C5.04503 18.0117 2.51974 23.6331 1.75166 29.6167C0.983575 35.6003 2.0072 41.6773 4.69308 47.0792C7.37895 52.481 11.6064 56.965 16.8408 59.964C22.0753 62.9631 28.0815 64.3425 34.0999 63.9278C40.1184 63.5132 45.8787 61.323 50.6523 57.6344C63.977 47.3368 66.437 28.1876 56.1433 14.8581Z" fill="#FF6C37"/>
<path d="M42.2912 22.4337L29.4307 35.3962L25.7964 31.6599C38.4539 19.0024 39.7234 20.1462 42.2912 22.4337Z" fill="white"/>
<path d="M29.4299 35.7507C29.316 35.7479 29.2072 35.7027 29.1249 35.6239L25.4649 31.9639C25.3825 31.8786 25.3364 31.7646 25.3364 31.646C25.3364 31.5274 25.3825 31.4135 25.4649 31.3282C37.9441 18.8489 39.6474 19.4332 42.5954 22.1019C42.6448 22.1414 42.6842 22.1919 42.7107 22.2493C42.7372 22.3067 42.7499 22.3695 42.7479 22.4327C42.767 22.5566 42.7193 22.6833 42.6211 22.7634L29.7606 35.6249C29.6704 35.7075 29.5522 35.7519 29.4299 35.7507ZM26.4304 31.6589L29.4299 34.6584L41.6299 22.4584C41.2086 21.9305 40.6076 21.5764 39.9417 21.4639C39.2758 21.3513 38.5917 21.4882 38.0204 21.8484C35.8092 22.8396 32.2511 25.8639 26.4304 31.6589Z" fill="#FF6C37"/>
<path d="M33.1159 38.9798L29.6084 35.3961L42.4689 22.6871C45.9259 26.0679 40.7914 31.7113 33.1159 38.9798Z" fill="white"/>
<path d="M33.1156 39.4374C33.0031 39.4285 32.8963 39.3841 32.8106 39.3106L29.2268 35.8031C29.1731 35.6728 29.1731 35.5265 29.2268 35.3962C29.1887 35.2892 29.1887 35.1724 29.2268 35.0654L42.0873 22.2049C42.1768 22.1209 42.2949 22.0741 42.4176 22.0741C42.5403 22.0741 42.6584 22.1209 42.7479 22.2049C43.1643 22.5882 43.4934 23.0568 43.7126 23.5786C43.9319 24.1005 44.0361 24.6634 44.0184 25.2292C44.0184 28.6604 40.1039 32.9809 33.4454 39.2849C33.3564 39.3729 33.2403 39.4269 33.1156 39.4374ZM30.2686 35.3962L33.1404 38.267C38.2234 33.4632 43.0786 28.507 43.1034 25.152C43.131 24.4407 42.8959 23.7442 42.4429 23.1952L30.2686 35.3962Z" fill="#FF6C37"/>
<path d="M25.8974 31.7361L28.4394 34.278C28.4556 34.2924 28.4686 34.31 28.4775 34.3297C28.4864 34.3494 28.491 34.3708 28.491 34.3924C28.491 34.4141 28.4864 34.4354 28.4775 34.4552C28.4686 34.4749 28.4556 34.4925 28.4394 34.5068L23.0761 35.6505C22.9679 35.6739 22.8549 35.6613 22.7545 35.6145C22.6541 35.5678 22.5717 35.4895 22.5199 35.3916C22.4681 35.2937 22.4497 35.1816 22.4676 35.0722C22.4854 34.9629 22.5384 34.8624 22.6186 34.7861L25.7449 31.6855C25.7449 31.6855 25.8469 31.6855 25.8974 31.7361Z" fill="white"/>
<path d="M22.9489 36.1585C22.7794 36.1564 22.6134 36.1109 22.4665 36.0263C22.3197 35.9417 22.197 35.8208 22.1101 35.6753C22.0124 35.491 21.977 35.28 22.0091 35.0738C22.0412 34.8676 22.1392 34.6774 22.2884 34.5316L25.3889 31.4053C25.5007 31.3054 25.6454 31.2501 25.7954 31.2501C25.9454 31.2501 26.0901 31.3054 26.2019 31.4053L28.7439 33.9473C28.8945 34.0903 28.9536 34.3066 28.8964 34.5068C28.8392 34.7069 28.6715 34.8661 28.4646 34.9138L23.1014 36.0575L22.9489 36.1585ZM25.7959 32.2955L22.9241 35.1673L27.6773 34.1503L25.7959 32.2955Z" fill="#FF6C37"/>
<path d="M49.1282 15.291C47.2887 13.5163 44.3988 13.4419 42.4697 15.1165C40.5406 16.7912 40.2108 19.6658 41.7129 21.7341C43.2151 23.8024 46.0468 24.3819 48.239 23.0685L44.782 19.6115L49.1282 15.291Z" fill="white"/>
<path d="M45.6968 24.237C44.6399 24.2234 43.6104 23.8992 42.7365 23.3046C41.8627 22.7101 41.1831 21.8715 40.7825 20.8934C40.3821 19.9161 40.2771 18.8428 40.4804 17.8064C40.6837 16.77 41.1864 15.8159 41.9262 15.0622C42.9438 14.0633 44.3128 13.5037 45.7387 13.5037C47.1647 13.5037 48.5336 14.0633 49.5512 15.0622C49.6484 15.1442 49.7037 15.2652 49.7037 15.3929C49.7035 15.4558 49.6897 15.5178 49.6634 15.5749C49.6371 15.6319 49.5989 15.6827 49.5512 15.7237L45.4337 19.6124L48.56 22.6882C48.6106 22.7365 48.6487 22.7966 48.6708 22.863C48.6929 22.9295 48.6983 23.0003 48.6867 23.0694C48.6792 23.136 48.6571 23.2002 48.622 23.2574C48.587 23.3145 48.5397 23.3633 48.4837 23.4001C47.6438 23.9251 46.6784 24.2148 45.6882 24.2389L45.6968 24.237ZM45.6968 14.375C43.8858 14.3845 42.2655 15.4739 41.586 17.1391C40.9064 18.8042 41.2762 20.7209 42.5458 22C43.1772 22.6351 43.9858 23.0648 44.8656 23.2326C45.7453 23.4005 46.6553 23.2988 47.4763 22.9407L44.4768 19.9412C44.4291 19.9031 44.3906 19.8547 44.3642 19.7997C44.3377 19.7447 44.324 19.6844 44.324 19.6234C44.324 19.5623 44.3377 19.5021 44.3642 19.447C44.3906 19.392 44.4291 19.3436 44.4768 19.3055L48.4418 15.3148C47.6536 14.7107 46.6898 14.3814 45.6968 14.375Z" fill="#FF6C37"/>
<path d="M49.2046 15.3672L44.8584 19.6877L48.3154 23.1447C48.6633 22.9449 48.9873 22.7061 49.2809 22.4327C50.1869 21.475 50.6855 20.2028 50.6712 18.8845C50.657 17.5663 50.1311 16.3051 49.2046 15.3672Z" fill="white"/>
<path d="M48.2381 23.5258C48.181 23.5289 48.1239 23.5191 48.0711 23.4971C48.0183 23.4752 47.9711 23.4417 47.9331 23.399L44.4761 19.942C44.4284 19.9039 44.3899 19.8555 44.3634 19.8005C44.337 19.7455 44.3232 19.6852 44.3232 19.6242C44.3232 19.5631 44.337 19.5028 44.3634 19.4478C44.3899 19.3928 44.4284 19.3444 44.4761 19.3063L48.7966 15.062C48.8383 14.9991 48.895 14.9475 48.9615 14.9118C49.028 14.8761 49.1023 14.8574 49.1778 14.8574C49.2533 14.8574 49.3277 14.8761 49.3942 14.9118C49.4607 14.9475 49.5173 14.9991 49.5591 15.062C50.0663 15.559 50.4692 16.1522 50.7443 16.8068C51.0194 17.4615 51.1611 18.1644 51.1611 18.8745C51.1611 19.5846 51.0194 20.2876 50.7443 20.9422C50.4692 21.5969 50.0663 22.1901 49.5591 22.687C49.2599 23.0044 48.9175 23.2781 48.5421 23.5C48.4476 23.5477 48.3392 23.5569 48.2381 23.5258ZM45.4425 19.6122L48.3143 22.484C48.5118 22.3455 48.6989 22.1926 48.8738 22.0265C49.718 21.1846 50.1935 20.042 50.1958 18.8497C50.1977 17.7828 49.8088 16.752 49.1025 15.9522L45.4425 19.6122Z" fill="#FF6C37"/>
<path d="M42.8243 22.9673C42.4801 22.6441 42.0256 22.4641 41.5533 22.4641C41.0811 22.4641 40.6266 22.6441 40.2823 22.9673L28.7695 34.4544L30.6758 36.3864L42.85 25.7114C43.0357 25.5334 43.183 25.3194 43.2828 25.0824C43.3826 24.8454 43.4329 24.5905 43.4304 24.3333C43.428 24.0762 43.373 23.8222 43.2688 23.5872C43.1645 23.3521 43.0133 23.1418 42.8243 22.9673Z" fill="white"/>
<path d="M30.5739 36.8448C30.46 36.842 30.3513 36.7968 30.2689 36.7181L28.337 34.7861C28.2546 34.7008 28.2085 34.5868 28.2085 34.4682C28.2085 34.3496 28.2546 34.2357 28.337 34.1504L39.8507 22.6871C40.1823 22.3559 40.6058 22.1319 41.0663 22.0443C41.5267 21.9567 42.0029 22.0094 42.433 22.1956C42.8631 22.3819 43.2274 22.6931 43.4785 23.0888C43.7297 23.4846 43.8561 23.9467 43.8414 24.4151C43.8282 24.7331 43.7517 25.0453 43.6164 25.3333C43.481 25.6214 43.2896 25.8795 43.0532 26.0926L30.8789 36.7676C30.7904 36.8303 30.6816 36.8585 30.5739 36.8448ZM29.2272 34.4544L30.4977 35.7507L42.4432 25.3549C42.7387 25.0976 42.915 24.7297 42.9264 24.3379C42.9379 23.9462 42.7835 23.5631 42.4947 23.2962C42.228 23.0306 41.8669 22.8815 41.4906 22.8815C41.1142 22.8815 40.7531 23.0306 40.4864 23.2962L29.2272 34.4544Z" fill="#FF6C37"/>
<path d="M19.848 47.5446C19.8155 47.5888 19.798 47.6422 19.798 47.6971C19.798 47.7519 19.8155 47.8054 19.848 47.8496L20.356 50.0608C20.3764 50.1909 20.3571 50.3242 20.3006 50.4432C20.2442 50.5622 20.1532 50.6614 20.0396 50.728C19.9264 50.7942 19.795 50.8228 19.6645 50.8096C19.534 50.7964 19.411 50.7422 19.3133 50.6546L15.8315 47.2996L26.6848 36.3606H30.4468L32.9887 38.9026C29.0235 42.3695 24.6022 45.2772 19.848 47.5446Z" fill="white"/>
<path d="M19.6196 51.2809C19.3317 51.2751 19.0477 51.157 18.8571 50.9501L15.5278 47.6209C15.4801 47.5827 15.4416 47.5344 15.4152 47.4793C15.3887 47.4243 15.375 47.364 15.375 47.303C15.375 47.2419 15.3887 47.1817 15.4152 47.1266C15.4416 47.0716 15.4801 47.0233 15.5278 46.9851L26.4564 36.0309C26.5175 35.9658 26.5975 35.9215 26.6851 35.9041H30.4719C30.5705 35.8692 30.6782 35.8692 30.7769 35.9041L33.3189 38.4461C33.3672 38.4906 33.404 38.5463 33.4261 38.6082C33.4481 38.6701 33.4549 38.7365 33.4456 38.8016C33.4474 38.8647 33.4346 38.9275 33.4081 38.9848C33.3817 39.0422 33.3423 39.0927 33.2931 39.1323L33.0901 39.3106C29.1088 42.6296 24.7287 45.4386 20.0514 47.6723L20.5346 49.7311C20.5719 49.8899 20.5734 50.055 20.5388 50.2145C20.5042 50.3739 20.4344 50.5236 20.3346 50.6527C20.2348 50.7817 20.1074 50.8869 19.9618 50.9604C19.8161 51.034 19.6559 51.0741 19.4928 51.0778L19.6196 51.2809ZM16.5191 47.2901L19.5176 50.3144C19.5455 50.3393 19.5817 50.3531 19.6191 50.3531C19.6566 50.3531 19.6927 50.3393 19.7206 50.3144C19.7393 50.2884 19.7494 50.2573 19.7494 50.2253C19.7494 50.1933 19.7393 50.1621 19.7206 50.1362L19.2126 47.9249C19.1726 47.7662 19.1887 47.5985 19.2581 47.4504C19.3276 47.3022 19.4462 47.1826 19.5939 47.1119C24.1454 44.908 28.4127 42.1597 32.3019 38.9274L30.2174 36.8429H26.8119L16.5191 47.2901Z" fill="#FF6C37"/>
<path d="M13.2146 49.9083L15.7566 47.3663L19.6711 51.2808L13.4443 50.849C13.3374 50.8407 13.2359 50.7987 13.1542 50.7292C13.0725 50.6597 13.0149 50.5662 12.9895 50.462C12.9642 50.3578 12.9724 50.2483 13.013 50.149C13.0535 50.0498 13.1244 49.9658 13.2155 49.9093L13.2146 49.9083Z" fill="white"/>
<path d="M19.7468 51.6621L13.5448 51.2303C13.1769 51.196 12.8605 50.9444 12.7308 50.6079C12.6012 50.2714 12.6803 49.8721 12.9348 49.6033L15.4768 47.0613C15.5621 46.9789 15.6761 46.9329 15.7947 46.9329C15.9133 46.9329 16.0272 46.9789 16.1125 47.0613L20.0013 50.9501C20.0551 51.0238 20.0841 51.1128 20.0841 51.2041C20.0841 51.2954 20.0551 51.3843 20.0013 51.4581C19.9425 51.5532 19.8526 51.6259 19.7468 51.6621ZM13.5448 50.239L18.6278 50.5698L15.8323 47.9515L13.5448 50.239Z" fill="#FF6C37"/>
<path d="M30.8025 36.6675L25.668 37.4557L28.6417 34.5077L30.8025 36.6675Z" fill="white"/>
<path d="M25.6685 37.9371C25.5832 37.9394 25.4991 37.9164 25.4267 37.8712C25.3543 37.8259 25.2969 37.7604 25.2615 37.6827C25.2074 37.609 25.1782 37.52 25.1782 37.4286C25.1782 37.3373 25.2074 37.2483 25.2615 37.1746L28.2095 34.2009C28.299 34.1169 28.4171 34.0701 28.5398 34.0701C28.6625 34.0701 28.7806 34.1169 28.8701 34.2009L31.0317 36.3607C31.0749 36.4292 31.0978 36.5085 31.0978 36.5894C31.0978 36.6704 31.0749 36.7497 31.0317 36.8182C31.0105 36.9016 30.9657 36.9772 30.9027 37.0359C30.8396 37.0945 30.761 37.1338 30.6762 37.1489L25.5932 37.9371H25.6685ZM28.6423 35.1664L26.9905 36.8182L29.8375 36.3864L28.6423 35.1664Z" fill="#FF6C37"/>
<path d="M30.8032 36.6657L27.2194 37.1232C27.1235 37.145 27.0231 37.1353 26.9332 37.0955C26.8432 37.0558 26.7685 36.9881 26.72 36.9025C26.6716 36.8169 26.652 36.718 26.6642 36.6204C26.6763 36.5228 26.7196 36.4318 26.7876 36.3607L28.6434 34.505L30.8032 36.6657Z" fill="white"/>
<path d="M27.1169 37.6072C26.9508 37.6056 26.7881 37.56 26.6453 37.4752C26.5025 37.3903 26.3847 37.2691 26.3039 37.1239C26.2069 36.95 26.1692 36.7491 26.1968 36.5517C26.2243 36.3544 26.3155 36.1715 26.4564 36.0307L28.3122 34.175C28.4016 34.0909 28.5197 34.0442 28.6424 34.0442C28.7651 34.0442 28.8832 34.0909 28.9727 34.175L31.1334 36.3357C31.1977 36.3966 31.2429 36.4748 31.2636 36.5609C31.2843 36.6469 31.2795 36.7372 31.25 36.8206C31.2204 36.904 31.1673 36.9771 31.097 37.0309C31.0268 37.0848 30.9424 37.1171 30.8541 37.1239L27.2961 37.5814L27.1169 37.6072ZM27.1169 36.6664L29.8114 36.3357L28.6172 35.1414L27.0922 36.6664H27.1169ZM49.2294 18.2902C49.1816 18.21 49.1059 18.1502 49.0168 18.122C48.9277 18.0939 48.8314 18.0995 48.7462 18.1377C48.7041 18.159 48.6668 18.1886 48.6363 18.2246C48.6059 18.2606 48.583 18.3024 48.5689 18.3474C48.5406 18.4382 48.5495 18.5366 48.5937 18.6209C48.7719 18.9955 48.7224 19.4387 48.4669 19.7647C48.4352 19.7961 48.4104 19.8337 48.394 19.8752C48.3775 19.9167 48.3699 19.9612 48.3716 20.0058C48.3726 20.0952 48.4065 20.1811 48.4669 20.247C48.5322 20.2727 48.6047 20.2727 48.67 20.247C48.7291 20.2618 48.7913 20.2602 48.8496 20.2422C48.9079 20.2242 48.9602 20.1906 49.0007 20.145C49.21 19.8887 49.3425 19.5785 49.383 19.2501C49.4235 18.9218 49.3702 18.5896 49.2294 18.2902Z" fill="#FF6C37"/>
</svg>
