<svg width="65" height="64" viewBox="0 0 65 64" fill="none" xmlns="http://www.w3.org/2000/svg">
<g clip-path="url(#clip0_252_1141)">
<path d="M63.1906 28.5347L50.551 6.62153C49.4568 4.71877 46.7654 3.15625 44.5644 3.15625H19.3104C17.122 3.15625 14.4181 4.71877 13.3239 6.62153L0.696852 28.5347C-0.397323 30.4374 -0.397323 33.5499 0.696852 35.4526L13.3239 57.3784C14.4181 59.2811 17.1095 60.8437 19.3104 60.8437H44.577C46.7654 60.8437 49.4568 59.2811 50.5635 57.3784L63.1906 35.4526C64.2847 33.5499 64.2847 30.4374 63.1906 28.5347ZM29.2083 15.2784C29.2083 13.8419 30.3779 12.67 31.8117 12.67C33.2454 12.67 34.415 13.8419 34.415 15.2784V30.8659C34.415 32.3024 33.2454 33.4743 31.8117 33.4743C30.3779 33.4743 29.2083 32.3024 29.2083 30.8659V15.2784ZM31.8117 48.5577C22.0773 48.5577 14.1539 40.619 14.1539 30.8659C14.1665 25.271 16.8076 20.0164 21.2849 16.6645C22.3162 15.8959 23.7626 16.1101 24.5297 17.1434C25.2969 18.1767 25.0831 19.6258 24.0518 20.3944C18.2791 24.6914 17.0717 32.8694 21.3604 38.6533C25.6491 44.4372 33.8113 45.6468 39.5841 41.3499C42.8917 38.8927 44.8411 34.999 44.8411 30.8659C44.8286 26.7201 42.8666 22.8264 39.5338 20.3566C38.5025 19.6006 38.2887 18.1388 39.0433 17.1056C39.7979 16.0723 41.2568 15.8581 42.2881 16.6141C46.8031 19.9534 49.4568 25.2458 49.4694 30.8659C49.4694 40.6316 41.546 48.5577 31.8117 48.5577Z" fill="#6DB33F"/>
</g>
<defs>
<clipPath id="clip0_252_1141">
<rect width="64" height="64" fill="white" transform="translate(0.0112305)"/>
</clipPath>
</defs>
</svg>
