<svg width="32" height="33" viewBox="0 0 32 33" fill="none" xmlns="http://www.w3.org/2000/svg">
<g clip-path="url(#clip0_252_1237)">
<path d="M10.0784 29.1914C22.0569 29.1914 28.6105 19.2649 28.6105 10.6593C28.6105 10.3802 28.6043 10.095 28.5919 9.8159C29.8668 8.89394 30.967 7.75195 31.8408 6.4436C30.6535 6.97186 29.3929 7.31687 28.102 7.46683C29.4612 6.65211 30.4789 5.37224 30.9664 3.86446C29.6878 4.62223 28.2894 5.15678 26.8314 5.44518C25.8489 4.4013 24.55 3.71013 23.1353 3.47853C21.7207 3.24692 20.2692 3.48779 19.0051 4.16388C17.7411 4.83997 16.735 5.91364 16.1424 7.21887C15.5498 8.52411 15.4036 9.98822 15.7266 11.3848C13.1375 11.2549 10.6046 10.5824 8.29216 9.41073C5.97969 8.23911 3.93924 6.5946 2.30311 4.58381C1.47154 6.01754 1.21708 7.7141 1.59144 9.3287C1.9658 10.9433 2.9409 12.3548 4.31855 13.2763C3.28429 13.2434 2.27269 12.965 1.36732 12.4639V12.5445C1.3664 14.0491 1.88655 15.5076 2.83936 16.672C3.79217 17.8365 5.11883 18.635 6.59383 18.9319C5.63575 19.194 4.63021 19.2322 3.65501 19.0435C4.07122 20.3375 4.88103 21.4692 5.97141 22.2808C7.06179 23.0923 8.37833 23.5432 9.7373 23.5705C7.43017 25.3828 4.58019 26.3658 1.64639 26.3611C1.1261 26.3603 0.606325 26.3285 0.0898438 26.2656C3.07028 28.1777 6.53732 29.1933 10.0784 29.1914Z" fill="white"/>
</g>
<defs>
<clipPath id="clip0_252_1237">
<rect width="31.751" height="31.751" fill="white" transform="translate(0.0898438 0.417236)"/>
</clipPath>
</defs>
</svg>
