<svg width="26" height="21" viewBox="0 0 26 21" fill="none" xmlns="http://www.w3.org/2000/svg">
<path d="M9.85833 1.5C9.85833 1.075 9.997 0.7185 10.2743 0.4305C10.5507 0.1435 10.8935 0 11.3028 0H24.5556C24.9648 0 25.3076 0.1435 25.584 0.4305C25.8613 0.7185 26 1.075 26 1.5V8.25C26 8.675 25.8613 9.031 25.584 9.318C25.3076 9.606 24.9648 9.75 24.5556 9.75H11.3028C10.8935 9.75 10.5507 9.606 10.2743 9.318C9.997 9.031 9.85833 8.675 9.85833 8.25V1.5ZM1.44444 21C1.03519 21 0.692371 20.856 0.416 20.568C0.138667 20.281 0 19.925 0 19.5V1.5C0 1.075 0.138667 0.7185 0.416 0.4305C0.692371 0.1435 1.03519 0 1.44444 0H6.96944C7.3787 0 7.722 0.1435 7.99933 0.4305C8.2757 0.7185 8.41389 1.075 8.41389 1.5V19.5C8.41389 19.925 8.2757 20.281 7.99933 20.568C7.722 20.856 7.3787 21 6.96944 21H1.44444ZM24.5556 11.25C24.9648 11.25 25.3076 11.3935 25.584 11.6805C25.8613 11.9685 26 12.325 26 12.75V19.5C26 19.925 25.8613 20.281 25.584 20.568C25.3076 20.856 24.9648 21 24.5556 21H20.1139C19.7046 21 19.3613 20.856 19.084 20.568C18.8076 20.281 18.6694 19.925 18.6694 19.5V12.75C18.6694 12.325 18.8076 11.9685 19.084 11.6805C19.3613 11.3935 19.7046 11.25 20.1139 11.25H24.5556ZM9.85833 12.75C9.85833 12.325 9.997 11.9685 10.2743 11.6805C10.5507 11.3935 10.8935 11.25 11.3028 11.25H15.7806C16.1898 11.25 16.5331 11.3935 16.8104 11.6805C17.0868 11.9685 17.225 12.325 17.225 12.75V19.5C17.225 19.925 17.0868 20.281 16.8104 20.568C16.5331 20.856 16.1898 21 15.7806 21H11.3028C10.8935 21 10.5507 20.856 10.2743 20.568C9.997 20.281 9.85833 19.925 9.85833 19.5V12.75Z" fill="black"/>
</svg>
