<svg width="34" height="34" viewBox="0 0 34 34" fill="none" xmlns="http://www.w3.org/2000/svg">
<path d="M9.91667 12.75H2.83333V9.91667H9.91667V12.75ZM9.91667 17H2.83333V19.8333H9.91667V17ZM29.1692 26.9167L23.7433 21.4908C22.61 22.2275 21.2783 22.6667 19.8333 22.6667C15.9233 22.6667 12.75 19.4933 12.75 15.5833C12.75 11.6733 15.9233 8.5 19.8333 8.5C23.7433 8.5 26.9167 11.6733 26.9167 15.5833C26.9167 17.0283 26.4775 18.36 25.7408 19.4792L31.1667 24.9192L29.1692 26.9167ZM24.0833 15.5833C24.0833 13.2458 22.1708 11.3333 19.8333 11.3333C17.4958 11.3333 15.5833 13.2458 15.5833 15.5833C15.5833 17.9208 17.4958 19.8333 19.8333 19.8333C22.1708 19.8333 24.0833 17.9208 24.0833 15.5833ZM2.83333 26.9167H17V24.0833H2.83333V26.9167Z" fill="black"/>
</svg>
