<svg width="65" height="64" viewBox="0 0 65 64" fill="none" xmlns="http://www.w3.org/2000/svg">
<path d="M0.719746 22.1211C0.719746 22.1211 -0.839054 20.9953 1.03151 19.4921L5.38965 15.5877C5.38965 15.5877 6.63669 14.2732 7.95517 15.4185L48.1722 45.9251V60.5537C48.1722 60.5537 48.1527 62.8508 45.2105 62.597L0.719746 22.1211Z" fill="#2489CA"/>
<path d="M11.086 31.5502L0.719995 40.9924C0.719995 40.9924 -0.345184 41.7863 0.719995 43.2049L5.53279 47.5908C5.53279 47.5908 6.67591 48.8207 8.36461 47.4217L19.3541 39.0727L11.086 31.5502Z" fill="#1070B3"/>
<path d="M29.2849 31.6284L48.2957 17.0844L48.1723 2.53389C48.1723 2.53389 47.3604 -0.641704 44.652 1.01117L19.354 24.0798L29.2849 31.6284Z" fill="#0877B9"/>
<path d="M45.2104 62.6164C46.3146 63.7487 47.6525 63.3778 47.6525 63.3778L62.4676 56.0635C64.3642 54.7686 64.0979 53.1612 64.0979 53.1612V9.48374C64.0979 7.56407 62.1364 6.90032 62.1364 6.90032L49.2958 0.698789C46.4899 -1.03868 44.6519 1.01114 44.6519 1.01114C44.6519 1.01114 47.016 -0.693789 48.1721 2.53387V60.2868C48.1721 60.6838 48.0877 61.0742 47.9188 61.4256C47.5811 62.1089 46.8472 62.7466 45.087 62.4798L45.2104 62.6164Z" fill="#3C99D4"/>
</svg>
